<svg width="78" height="88" viewBox="0 0 78 88" fill="none" xmlns="http://www.w3.org/2000/svg">
<path d="M35 1.3094C37.4752 -0.119662 40.5248 -0.119661 43 1.3094L73.9711 19.1906C76.4464 20.6197 77.9711 23.2607 77.9711 26.1188V61.8812C77.9711 64.7393 76.4464 67.3803 73.9711 68.8094L43 86.6906C40.5248 88.1197 37.4752 88.1197 35 86.6906L4.02886 68.8094C1.55365 67.3803 0.0288582 64.7393 0.0288582 61.8812L0.0288582 26.1188C0.0288582 23.2607 1.55365 20.6197 4.02886 19.1906L35 1.3094Z" fill="#207EBE"/>
<path d="M35 1.3094C37.4752 -0.119662 40.5248 -0.119661 43 1.3094L73.9711 19.1906C76.4464 20.6197 77.9711 23.2607 77.9711 26.1188V61.8812C77.9711 64.7393 76.4464 67.3803 73.9711 68.8094L43 86.6906C40.5248 88.1197 37.4752 88.1197 35 86.6906L4.02886 68.8094C1.55365 67.3803 0.0288582 64.7393 0.0288582 61.8812L0.0288582 26.1188C0.0288582 23.2607 1.55365 20.6197 4.02886 19.1906L35 1.3094Z" fill="url(#paint0_linear_363_8944)"/>
<defs>
<linearGradient id="paint0_linear_363_8944" x1="-27.6346" y1="-17.7646" x2="88.4165" y2="-113.171" gradientUnits="userSpaceOnUse">
<stop offset="0.0208333" stop-color="#2966DC"/>
<stop offset="0.390625" stop-color="#1491FC"/>
<stop offset="0.675677" stop-color="#1188EB"/>
<stop offset="1" stop-color="#0065B1"/>
</linearGradient>
</defs>
</svg>
