<svg width="16" height="17" viewBox="0 0 16 17" fill="none" xmlns="http://www.w3.org/2000/svg">
<g clip-path="url(#clip0_363_8256)">
<path d="M8 16.4131C12.4183 16.4131 16 12.8826 16 8.5276C16 4.17257 12.4183 0.64212 8 0.64212C3.58172 0.64212 0 4.17257 0 8.5276C0 12.8826 3.58172 16.4131 8 16.4131Z" fill="#039BE5"/>
<path d="M3.66084 8.35675L11.3742 5.42532C11.7322 5.29784 12.0448 5.5114 11.9288 6.04499L11.9295 6.04433L10.6162 12.1431C10.5188 12.5755 10.2582 12.6806 9.89351 12.4769L7.89351 11.024L6.92884 11.94C6.82217 12.0452 6.73218 12.1339 6.52551 12.1339L6.66751 10.1277L10.3742 6.82696C10.5355 6.687 10.3382 6.60814 10.1255 6.74745L5.54484 9.59017L3.57017 8.98298C3.14151 8.84893 3.13218 8.56045 3.66084 8.35675V8.35675Z" fill="white"/>
</g>
<defs>
<clipPath id="clip0_363_8256">
<rect width="16" height="15.771" fill="white" transform="translate(0 0.64212)"/>
</clipPath>
</defs>
</svg>
