<svg width="1321" height="221" fill="none" xmlns="http://www.w3.org/2000/svg"><path opacity=".2" d="M1270.65-25c-23.48 2.192-48.98 2.536-71.86 7.662-22.39 5.016-45.96 14.115-65.66 23.726-36.29 17.711-54.88 42.506-71.75 72.087-27.83 48.816-37.91 99.448-38.34 152.492-.29 35.116 1.06 69.875 4.72 104.875 1.12 10.687.56 22.903 8.41 32.13" stroke="#A596FF" stroke-width="4.449" stroke-linecap="round"/><path opacity=".2" d="M1318.1.21c-24.18 2.257-50.44 2.611-74.01 7.892-23.05 5.168-47.33 14.542-67.62 24.443-37.38 18.246-56.53 43.789-73.9 74.262-28.67 50.291-39.04 102.451-39.49 157.097-.3 36.176 1.09 71.983 4.87 108.041 1.15 11.009.57 23.594 8.65 33.1" stroke="#A596FF" stroke-width="4.449" stroke-linecap="round"/><path opacity=".2" d="M533.605 552.362c5.371-31.465 13.205-61.061 11.198-94.989-1.433-24.232-7.434-48.08-18.973-70.836-21.512-42.427-49.633-82.873-83.064-115.101-34.162-32.931-67.699-68.764-106.275-94.052-35.866-23.513-74.12-42.938-109.087-68.49C168.815 66.082 127.347-2.236 92.151-67.804c-18.62-34.689-37.088-69.613-54.914-104.713-11.187-22.026-20.584-45.646-34.34-66.114" stroke="#A596FF" stroke-width="4.017" stroke-linecap="round"/><path opacity=".2" d="M577.265 541.084c5.794-33.994 14.249-65.967 12.074-102.623-1.553-26.18-8.04-51.947-20.507-76.535-23.245-45.843-53.627-89.546-89.744-124.372-36.905-35.586-73.136-74.306-114.808-101.637-38.745-25.41-80.067-46.405-117.842-74.019-63.291-46.266-108.095-120.085-146.125-190.932-20.12-37.481-40.074-75.217-59.336-113.142-12.088-23.8-22.243-49.321-37.104-71.437" stroke="#A596FF" stroke-width="4.017" stroke-linecap="round"/></svg>