<svg width="1321" height="221" viewBox="0 0 1321 221" fill="none" xmlns="http://www.w3.org/2000/svg">
<path opacity="0.2" d="M1270.65 -25C1247.17 -22.8081 1221.67 -22.4643 1198.79 -17.3383C1176.4 -12.3223 1152.83 -3.22253 1133.13 6.38835C1096.84 24.0993 1078.25 48.8937 1061.38 78.4745C1033.55 127.291 1023.47 177.923 1023.04 230.967C1022.75 266.083 1024.1 300.842 1027.76 335.842C1028.88 346.529 1028.32 358.745 1036.17 367.972" stroke="#A596FF" stroke-width="4.44874" stroke-linecap="round"/>
<path opacity="0.2" d="M1318.1 0.209229C1293.92 2.46734 1267.66 2.82144 1244.09 8.10225C1221.04 13.2696 1196.76 22.6441 1176.47 32.5452C1139.09 50.7908 1119.94 76.3337 1102.57 106.807C1073.9 157.098 1063.53 209.258 1063.08 263.904C1062.78 300.08 1064.17 335.887 1067.95 371.945C1069.1 382.954 1068.52 395.539 1076.6 405.045" stroke="#A596FF" stroke-width="4.44874" stroke-linecap="round"/>
<path opacity="0.2" d="M533.605 552.362C538.976 520.897 546.81 491.301 544.803 457.373C543.37 433.141 537.369 409.293 525.83 386.537C504.318 344.11 476.197 303.664 442.766 271.436C408.604 238.505 375.067 202.672 336.491 177.384C300.625 153.871 262.371 134.446 227.404 108.894C168.815 66.0817 127.347 -2.23591 92.1511 -67.8043C73.5309 -102.493 55.0632 -137.417 37.2368 -172.517C26.0501 -194.543 16.6528 -218.163 2.89776 -238.631" stroke="#A596FF" stroke-width="4.01667" stroke-linecap="round"/>
<path opacity="0.2" d="M577.265 541.084C583.059 507.09 591.514 475.117 589.339 438.461C587.786 412.281 581.299 386.514 568.832 361.926C545.587 316.083 515.205 272.38 479.088 237.554C442.183 201.968 405.952 163.248 364.28 135.917C325.535 110.507 284.213 89.5118 246.438 61.8985C183.147 15.632 138.343 -58.1868 100.313 -129.034C80.1933 -166.515 60.2387 -204.251 40.9767 -242.176C28.8892 -265.976 18.7339 -291.497 3.87262 -313.613" stroke="#A596FF" stroke-width="4.01667" stroke-linecap="round"/>
</svg>
