<svg width="21" height="21" viewBox="0 0 21 21" fill="none" xmlns="http://www.w3.org/2000/svg">
<g clip-path="url(#clip0_363_8911)">
<path d="M10.5 0C4.701 0 0 4.701 0 10.5C0 16.299 4.701 21 10.5 21C16.299 21 21 16.299 21 10.5C20.9938 4.7036 16.2964 0.00619629 10.5 0ZM10.5 19.5C5.52942 19.5 1.49998 15.4705 1.49998 10.5C1.49998 5.52942 5.52942 1.49998 10.5 1.49998C15.4705 1.49998 19.5 5.52942 19.5 10.5C19.4946 15.4683 15.4683 19.4946 10.5 19.5Z" fill="#1A84F2"/>
<path d="M16.2617 6.21982C15.9711 5.9391 15.5103 5.9391 15.2197 6.21982L8.24994 13.1895L5.78017 10.7198C5.49241 10.4218 5.01759 10.4136 4.71968 10.7014C4.42173 10.9891 4.41351 11.4639 4.70127 11.7618C4.70729 11.7681 4.71344 11.7742 4.71968 11.7803L7.71969 14.7803C8.01255 15.0731 8.48733 15.0731 8.78018 14.7803L16.2802 7.28026C16.5679 6.98236 16.5597 6.50757 16.2617 6.21982Z" fill="#1A84F2"/>
</g>
<defs>
<clipPath id="clip0_363_8911">
<rect width="21" height="21" fill="white"/>
</clipPath>
</defs>
</svg>
