<svg width="16" height="16" viewBox="0 0 16 16" fill="none" xmlns="http://www.w3.org/2000/svg">
<g opacity="0.8" clip-path="url(#clip0_363_8248)">
<path d="M15.9994 7.99767C15.9994 12.4177 12.4179 16 7.99971 16C3.58154 16 0 12.4177 0 7.99767C0 3.5776 3.58096 0 7.99971 0C12.4185 0 15.9994 3.57993 15.9994 7.99767Z" fill="#54135D"/>
<path fill-rule="evenodd" clip-rule="evenodd" d="M10.2943 12.2234C9.97859 12.2356 9.67741 12.1652 9.37566 12.0778C7.34364 11.4973 5.82146 10.2295 4.59639 8.55622C4.13387 7.92223 3.70431 7.27389 3.56196 6.48689C3.39324 5.54958 3.66281 4.74803 4.36154 4.10453C4.58553 3.89547 5.2643 3.80587 5.53638 3.9393C5.63587 3.98778 5.70142 4.07777 5.74331 4.17474C6.00008 4.77906 6.2538 5.38628 6.50449 5.99641C6.55181 6.11045 6.53067 6.22701 6.47773 6.34376C6.34915 6.62536 6.14262 6.848 5.93142 7.0722C5.77046 7.23743 5.76619 7.3856 5.88275 7.58226C6.60029 8.77227 7.59245 9.6417 8.88869 10.1617C9.08262 10.2392 9.22866 10.2152 9.35723 10.0499C9.57289 9.78056 9.80328 9.51816 10.0075 9.23889C10.1465 9.04689 10.3069 9.0178 10.5047 9.10526C10.9353 9.30444 11.3633 9.50846 11.7915 9.70997C11.8884 9.75612 11.9827 9.80228 12.0779 9.84844C12.5141 10.0655 12.5088 10.0693 12.4714 10.5476C12.3993 11.4851 11.6957 11.9465 10.8639 12.1767C10.6804 12.2257 10.4855 12.2331 10.2943 12.2234Z" fill="#FDFDFD"/>
<path fill-rule="evenodd" clip-rule="evenodd" d="M11.1045 4.98423C11.4482 5.28775 11.6875 5.66903 11.8849 6.0796C12.042 6.40736 12.1392 6.75218 12.2005 7.10922C12.2127 7.17981 12.2449 7.25991 12.1745 7.32527C11.9794 7.33749 11.7847 7.34466 11.5915 7.36406C11.5151 7.37375 11.4945 7.35436 11.4841 7.27911C11.3974 6.60886 11.121 6.01851 10.6589 5.52804C9.98633 4.81357 9.15358 4.46389 8.16841 4.49046C8.143 4.49046 8.1176 4.49298 8.04041 4.49551C8.03498 4.27694 8.02955 4.05585 8.02393 3.83495C8.06698 3.7597 8.14358 3.77425 8.21029 3.77425C8.61434 3.76421 9.01741 3.81828 9.40453 3.93444C9.72252 4.02629 10.0265 4.16109 10.3081 4.33512C10.395 4.38909 10.4774 4.44999 10.5545 4.51723C10.6189 4.57075 10.7469 4.68014 10.8113 4.73347C10.8842 4.7965 11.0324 4.92043 11.1045 4.98423Z" fill="white"/>
<path fill-rule="evenodd" clip-rule="evenodd" d="M10.1518 5.53735C10.6886 6.00125 11.0195 6.58888 11.1306 7.29812C11.1434 7.38306 11.1244 7.41235 11.0358 7.41448C10.8635 7.42185 10.6904 7.43872 10.5185 7.45831C10.4652 7.46064 10.4456 7.45346 10.4379 7.39257C10.3467 6.77565 10.0407 6.28518 9.53142 5.92813C9.16409 5.66739 8.72102 5.53508 8.27086 5.5517C8.1962 5.55422 8.17196 5.53715 8.16827 5.4619C8.15916 5.28464 8.14345 5.10719 8.12289 4.93245C8.11669 4.87175 8.13123 4.85488 8.19387 4.85488C8.92965 4.83296 9.57874 5.06181 10.1518 5.53735Z" fill="white"/>
<path fill-rule="evenodd" clip-rule="evenodd" d="M9.4251 7.54581C9.34753 6.97039 8.90537 6.57436 8.33811 6.56718C8.28478 6.56718 8.2617 6.56234 8.25821 6.50144C8.24658 6.32689 8.22951 6.14944 8.2107 5.9745C8.20411 5.92098 8.21497 5.9041 8.27082 5.90158C9.12412 5.84573 9.99527 6.57921 10.0833 7.43371C10.0899 7.48471 10.0692 7.48976 10.0278 7.49461C9.82907 7.50954 9.63106 7.52893 9.4251 7.54581Z" fill="white"/>
</g>
<defs>
<clipPath id="clip0_363_8248">
<rect width="16" height="16" fill="white"/>
</clipPath>
</defs>
</svg>
